<svg id="Layer_1" data-name="Layer 1" xmlns="http://www.w3.org/2000/svg" viewBox="0 0 612.83 80"><defs><style>.cls-1{fill:#222a2e;}.cls-2{fill:#eb5f4f;}.cls-3{fill:#8e9299;}</style></defs><title>density-open-source-logos</title><path class="cls-1" d="M164.53,37.82l-7.73.69C155.55,31.09,150,27,142.65,27c-9.16,0-15.46,6.54-15.46,17.33,0,11.28,6.79,17.33,15.52,17.33,7.29,0,12.78-3.93,14.09-11.09l7.79,0.69c-1.81,10.6-10.53,17-21.63,17-13.34,0-23.31-8.85-23.31-23.93s9.85-23.93,23.25-23.93C154,20.37,163,27,164.53,37.82Z"/><path class="cls-1" d="M204.35,51.65c0,10.1-7.17,16.58-16.64,16.58S171,61.75,171,51.65s7.17-16.58,16.7-16.58S204.35,41.5,204.35,51.65Zm-26.24,0c0,6.61,4.05,10.53,9.6,10.53s9.6-3.93,9.6-10.53-4.11-10.6-9.6-10.6S178.11,45,178.11,51.65Z"/><path class="cls-1" d="M240.94,48.35V67.61h-7V49.29c0-4.8-2.74-7.73-7-7.73-4.43,0-7.42,3.37-7.42,7.79V67.61h-7v-32h6.61v4.24c1.62-2.8,4.67-4.8,9.35-4.8C235.77,35.08,240.94,40.06,240.94,48.35Z"/><path class="cls-1" d="M274.66,67.61V63.18c-1.75,2.93-5.55,5-10.53,5-8.91,0-15.39-6.42-15.39-16.58s6.48-16.58,15.39-16.58c4.8,0,8.41,1.93,10.16,4.43V19.18h7V67.61h-6.61Zm-18.82-16c0,6.79,4,10.53,9.41,10.53,5.24,0,9-3.37,9-9.72V50.78c0-6.29-3.8-9.72-9-9.72C259.83,41.06,255.84,44.86,255.84,51.65Z"/><path class="cls-1" d="M311.81,67.61V63.43c-1.18,2.37-4.05,4.8-9,4.8-7.23,0-11.72-5.17-11.72-12.9V35.64h7V54.27c0,4.61,2.24,7.42,6.48,7.42s6.92-3.62,6.92-7.79V35.64h7v32h-6.61Z"/><path class="cls-1" d="M336.43,24.54A4.39,4.39,0,0,1,332,28.91a4.36,4.36,0,0,1,0-8.73A4.39,4.39,0,0,1,336.43,24.54Zm-7.92,43.07v-32h7v32h-7Z"/><path class="cls-1" d="M362.42,61.5v6.23a26.37,26.37,0,0,1-4.67.37c-6.29,0-10.66-3.12-10.6-10.35l0.06-16.08h-5.92v-6h5.92l0.06-10.84h7l-0.06,10.84h8.1v6h-8.16l-0.06,14.65c0,4.18,2.43,5.48,5.3,5.48A16.28,16.28,0,0,0,362.42,61.5Z"/><path class="cls-2" d="M11.95,42.59H68A11.95,11.95,0,0,0,68,18.7H11.95a6.75,6.75,0,0,1,0-13.5H72.72a2.6,2.6,0,0,0,0-5.19H11.95a11.95,11.95,0,0,0,0,23.89H68a6.75,6.75,0,1,1,0,13.5H11.95a11.95,11.95,0,0,0,0,23.89H68a6.75,6.75,0,1,1,0,13.5H7.27a2.6,2.6,0,1,0,0,5.19H68A11.95,11.95,0,1,0,68,56.1H11.95A6.75,6.75,0,0,1,11.95,42.59Z"/><path class="cls-3" d="M414.29,57.93l-2.51.22a4.34,4.34,0,0,0-4.6-3.75c-3,0-5,2.13-5,5.63,0,3.67,2.21,5.63,5,5.63a4.3,4.3,0,0,0,4.58-3.61l2.53,0.22c-0.59,3.44-3.42,5.53-7,5.53-4.34,0-7.58-2.88-7.58-7.78s3.2-7.78,7.56-7.78C410.86,52.25,413.78,54.4,414.29,57.93Z"/><path class="cls-3" d="M422,59.3a2.64,2.64,0,0,0-2.9,2.65v5.65H416.8V57.22H419v1.46a3,3,0,0,1,3-1.58V59.3Z"/><path class="cls-3" d="M431.95,61.15v6.46h-2.29V66.68a4,4,0,0,1-2.82,1.13c-2.07,0-3.46-1.09-3.46-3,0-2.23,1.68-3,3.81-3.14l2.47-.14v-0.3c0-1.34-.57-2.17-1.84-2.17A1.69,1.69,0,0,0,426,60.78l-2.29-.08A3.85,3.85,0,0,1,427.8,57C430.47,57,431.95,58.49,431.95,61.15Zm-4.44,2.25c-1.07.06-1.84,0.41-1.84,1.34s0.65,1.17,1.56,1.17a2.16,2.16,0,0,0,2.45-2.29V63.25Z"/><path class="cls-3" d="M440.5,51.83v2a5.28,5.28,0,0,0-.65,0,1.83,1.83,0,0,0-1.94,2v1.5h2.55v2H437.9v8.43h-2.27V59.18h-2v-2h2V55.78a3.71,3.71,0,0,1,4-4A5.41,5.41,0,0,1,440.5,51.83Z"/><path class="cls-3" d="M448.07,65.62v2a8.56,8.56,0,0,1-1.52.12c-2,0-3.46-1-3.44-3.36l0-5.23h-1.92v-2h1.92l0-3.52h2.29l0,3.52h2.63v2H445.4l0,4.76a1.56,1.56,0,0,0,1.72,1.78A5.29,5.29,0,0,0,448.07,65.62Z"/><path class="cls-3" d="M452,63.27a2.62,2.62,0,0,0,2.78,2.57,2.31,2.31,0,0,0,2.47-1.48l2.29,0.12a4.63,4.63,0,0,1-4.7,3.32,5,5,0,0,1-5.25-5.39c0-3.38,2.17-5.39,5.19-5.39s4.86,2,4.86,5.13v1.11H452Zm0-1.78h5.33A2.38,2.38,0,0,0,454.78,59,2.55,2.55,0,0,0,452,61.49Z"/><path class="cls-3" d="M470.07,67.61V66.17a3.87,3.87,0,0,1-3.42,1.64c-2.9,0-5-2.09-5-5.39s2.11-5.39,5-5.39a4,4,0,0,1,3.3,1.44v-6.6h2.27V67.61h-2.15ZM464,62.42c0,2.21,1.3,3.42,3.06,3.42a2.83,2.83,0,0,0,2.94-3.16V62.14A2.84,2.84,0,0,0,467,59C465.25,59,464,60.21,464,62.42Z"/><path class="cls-3" d="M482.49,58.47a4,4,0,0,1,3.3-1.44c2.9,0,5,2.07,5,5.39s-2.11,5.39-5,5.39a3.87,3.87,0,0,1-3.42-1.64v1.44h-2.15V51.87h2.27v6.6Zm0,3.67v0.55a2.83,2.83,0,0,0,2.94,3.16c1.76,0,3.06-1.22,3.06-3.42S487.19,59,485.43,59A2.84,2.84,0,0,0,482.49,62.14Z"/><path class="cls-3" d="M493.2,72.77l2.55-5.9-4.11-9.66h2.53l2.8,7.11,2.8-7.11h2.53l-6.6,15.56H493.2Z"/><path class="cls-1" d="M564.18,56.87h1.93a0.37,0.37,0,0,1,.37.37v1a4,4,0,0,1,3.33-1.62c2.73,0,4.39,1.77,4.39,4.72v6.32h-2a0.37,0.37,0,0,1-.37-0.37V61.57c0-1.77-.89-2.9-2.62-2.9a2.78,2.78,0,0,0-2.75,3.07v5.95h-1.95a0.37,0.37,0,0,1-.37-0.37V56.87Z"/><path class="cls-1" d="M576.49,65.4l1.78-.93a0.36,0.36,0,0,1,.47.11,3.06,3.06,0,0,0,2.6,1.31c1.3,0,2-.67,2-1.43s-1.25-1.06-2.62-1.34c-1.84-.39-3.74-1-3.74-3.22,0-1.71,1.62-3.29,4.18-3.27a4.92,4.92,0,0,1,4.35,2.1l-1.65.91a0.37,0.37,0,0,1-.46-0.09,2.83,2.83,0,0,0-2.24-1c-1.23,0-1.86.61-1.86,1.3s1,1,2.55,1.34c1.77,0.39,3.79,1,3.79,3.22,0,1.49-1.3,3.5-4.37,3.48A5.06,5.06,0,0,1,576.49,65.4Z"/><path class="cls-1" d="M588.3,52.35h2a0.37,0.37,0,0,1,.37.37v2.11h-2a0.37,0.37,0,0,1-.37-0.37V52.35Zm0,4.52h2a0.37,0.37,0,0,1,.37.37V67.69h-2a0.37,0.37,0,0,1-.37-0.37V56.87Z"/><polygon class="cls-1" points="597.62 53.05 597.59 53.06 597.62 53.06 597.62 53.05"/><path class="cls-1" d="M599.7,65.54h-0.3a2.17,2.17,0,0,1-.92-0.18,1.45,1.45,0,0,1-.81-1.11,7.18,7.18,0,0,1-.05-0.93l0-4.38h2.27V57.24a0.37,0.37,0,0,0-.37-0.37h-1.93V53.06h0l-2.12,1.16a0.37,0.37,0,0,0-.19.32v2.34h-1.84v1.71a0.37,0.37,0,0,0,.37.37h1.47v0.2l0,5c0,2.44,1.45,3.49,3.57,3.49h0.06a9.11,9.11,0,0,0,1-.05l0.5-.07V65.87a0.37,0.37,0,0,0-.41-0.36Z"/><path class="cls-1" d="M606.23,67.13l-4.48-10.25H604a0.37,0.37,0,0,1,.34.22l3.06,7.28,2.89-7.28a0.37,0.37,0,0,1,.34-0.23h2.2l-6.44,15.59a0.37,0.37,0,0,1-.34.23h-2.14Z"/><path class="cls-1" d="M556.08,65.85a3.31,3.31,0,0,1-3.48-2.77h8.59a0.37,0.37,0,0,0,.37-0.37v-0.4a5.63,5.63,0,0,0-5.61-5.66,5.57,5.57,0,0,0-5.58,5.67,5.77,5.77,0,0,0,10.43,3.2l-1.63-.91a0.36,0.36,0,0,0-.45.08A3.41,3.41,0,0,1,556.08,65.85ZM556,58.69a3,3,0,0,1,3.2,2.42h-6.49A3.36,3.36,0,0,1,556,58.69Z"/><path class="cls-1" d="M535.2,52.28a0.37,0.37,0,0,1,.37-0.37h4.36c5.12,0,8.27,3.41,8.27,7.88A7.83,7.83,0,0,1,540,67.68H535.2V52.28Zm2.35,1.79V65.5h2.22c3.63,0,6-2.46,6-5.7s-2.18-5.72-6.13-5.72h-2.14Z"/><path class="cls-1" d="M517.68,63a5.79,5.79,0,0,0,2.8-5V54.19a0.37,0.37,0,0,1,.37-0.37h1.73a0.37,0.37,0,0,1,.37.37V58a5.79,5.79,0,0,0,2.8,5l3.41,2a0.37,0.37,0,0,1,.13.5L528.42,67a0.37,0.37,0,0,1-.5.13l-3.35-1.93a5.8,5.8,0,0,0-5.73,0l-3.35,1.93A0.37,0.37,0,0,1,515,67l-0.87-1.5a0.37,0.37,0,0,1,.13-0.5Z"/></svg>